<svg width="980" height="760" viewBox="0 0 980 760" fill="none" xmlns="http://www.w3.org/2000/svg">
  <defs>
    <linearGradient id="panel" x1="180" y1="90" x2="830" y2="660" gradientUnits="userSpaceOnUse">
      <stop stop-color="#171717"/>
      <stop offset="1" stop-color="#070707"/>
    </linearGradient>
    <linearGradient id="red" x1="0" y1="0" x2="1" y2="1">
      <stop stop-color="#A11212"/>
      <stop offset="1" stop-color="#5B0000"/>
    </linearGradient>
    <filter id="shadow" x="20" y="0" width="940" height="760" filterUnits="userSpaceOnUse" color-interpolation-filters="sRGB">
      <feDropShadow dx="0" dy="28" stdDeviation="28" flood-color="#000" flood-opacity="0.55"/>
    </filter>
    <filter id="glow" x="0" y="0" width="980" height="760" filterUnits="userSpaceOnUse">
      <feGaussianBlur stdDeviation="60"/>
    </filter>
  </defs>
  <ellipse cx="650" cy="380" rx="230" ry="220" fill="#8B0000" fill-opacity="0.20" filter="url(#glow)"/>
  <g filter="url(#shadow)">
    <rect x="122" y="72" width="736" height="566" rx="34" fill="url(#panel)" stroke="#2B2B2B" stroke-width="2"/>
    <rect x="122" y="72" width="736" height="62" rx="34" fill="#121212"/>
    <rect x="122" y="106" width="736" height="28" fill="#121212"/>
    <circle cx="164" cy="103" r="7" fill="#8B0000"/>
    <circle cx="188" cy="103" r="7" fill="#353535"/>
    <circle cx="212" cy="103" r="7" fill="#353535"/>
    <rect x="482" y="93" width="202" height="20" rx="10" fill="#1E1E1E"/>
    <rect x="154" y="166" width="242" height="430" rx="22" fill="#0D0D0D" stroke="#1E1E1E"/>
    <rect x="180" y="192" width="118" height="16" rx="8" fill="#FFFFFF" fill-opacity="0.94"/>
    <rect x="180" y="220" width="176" height="8" rx="4" fill="#646464"/>
    <rect x="180" y="246" width="190" height="72" rx="15" fill="url(#red)"/>
    <rect x="198" y="266" width="88" height="10" rx="5" fill="#FFFFFF" fill-opacity="0.92"/>
    <rect x="198" y="286" width="132" height="7" rx="3.5" fill="#FFFFFF" fill-opacity="0.38"/>
    <rect x="180" y="338" width="190" height="72" rx="15" fill="#141414" stroke="#242424"/>
    <rect x="198" y="358" width="104" height="10" rx="5" fill="#FFFFFF" fill-opacity="0.86"/>
    <rect x="198" y="378" width="142" height="7" rx="3.5" fill="#5F5F5F"/>
    <rect x="180" y="430" width="190" height="72" rx="15" fill="#141414" stroke="#242424"/>
    <rect x="198" y="450" width="98" height="10" rx="5" fill="#FFFFFF" fill-opacity="0.86"/>
    <rect x="198" y="470" width="120" height="7" rx="3.5" fill="#5F5F5F"/>
    <rect x="180" y="526" width="126" height="42" rx="12" fill="#8B0000"/>
    <rect x="426" y="166" width="402" height="176" rx="22" fill="#0D0D0D" stroke="#1E1E1E"/>
    <text x="452" y="205" fill="#FFFFFF" font-family="Arial, sans-serif" font-size="16" font-weight="700">Dein Projekt auf einen Blick</text>
    <rect x="452" y="227" width="148" height="8" rx="4" fill="#575757"/>
    <rect x="452" y="262" width="324" height="46" rx="13" fill="#141414"/>
    <circle cx="476" cy="285" r="9" fill="#8B0000"/>
    <rect x="496" y="277" width="116" height="8" rx="4" fill="#FFFFFF" fill-opacity="0.9"/>
    <rect x="496" y="291" width="196" height="6" rx="3" fill="#666666"/>
    <rect x="426" y="366" width="194" height="230" rx="22" fill="#0D0D0D" stroke="#1E1E1E"/>
    <text x="452" y="406" fill="#FFFFFF" font-family="Arial, sans-serif" font-size="15" font-weight="700">Fortschritt</text>
    <circle cx="523" cy="482" r="62" stroke="#242424" stroke-width="16"/>
    <path d="M523 420a62 62 0 1 1-52 96" stroke="url(#red)" stroke-width="16" stroke-linecap="round"/>
    <text x="496" y="490" fill="#FFFFFF" font-family="Arial, sans-serif" font-size="24" font-weight="700">82%</text>
    <rect x="650" y="366" width="178" height="230" rx="22" fill="#0D0D0D" stroke="#1E1E1E"/>
    <text x="674" y="406" fill="#FFFFFF" font-family="Arial, sans-serif" font-size="15" font-weight="700">Vorteile</text>
    <circle cx="682" cy="449" r="7" fill="#8B0000"/>
    <rect x="700" y="444" width="88" height="9" rx="4.5" fill="#EAEAEA"/>
    <circle cx="682" cy="492" r="7" fill="#8B0000"/>
    <rect x="700" y="487" width="96" height="9" rx="4.5" fill="#EAEAEA"/>
    <circle cx="682" cy="535" r="7" fill="#8B0000"/>
    <rect x="700" y="530" width="76" height="9" rx="4.5" fill="#EAEAEA"/>
  </g>
  <rect x="78" y="575" width="240" height="90" rx="20" fill="#121212" stroke="#2B2B2B"/>
  <circle cx="117" cy="620" r="20" fill="#8B0000"/>
  <path d="M108 620l7 7 13-16" stroke="#fff" stroke-width="4" stroke-linecap="round" stroke-linejoin="round"/>
  <text x="150" y="612" fill="#FFFFFF" font-family="Arial, sans-serif" font-size="14" font-weight="700">Persönlich geprüft</text>
  <text x="150" y="635" fill="#8E8E8E" font-family="Arial, sans-serif" font-size="12">kein Standard-Ergebnis</text>
</svg>
